<svg width="21" height="20" viewBox="0 0 21 20" fill="none" xmlns="http://www.w3.org/2000/svg">
<g opacity="0.5">
<path d="M15.8497 5.00793C15.683 4.51626 15.2163 4.16626 14.6663 4.16626H5.49967C4.94967 4.16626 4.49134 4.51626 4.31634 5.00793L2.58301 9.99959V16.6663C2.58301 17.1246 2.95801 17.4996 3.41634 17.4996H4.24967C4.70801 17.4996 5.08301 17.1246 5.08301 16.6663V15.8329H15.083V16.6663C15.083 17.1246 15.458 17.4996 15.9163 17.4996H16.7497C17.208 17.4996 17.583 17.1246 17.583 16.6663V9.99959L15.8497 5.00793ZM5.79134 5.83293H14.3663L15.2663 8.42459H4.89134L5.79134 5.83293ZM15.9163 14.1663H4.24967V9.99959H15.9163V14.1663Z" fill="white"/>
<path d="M6.33301 13.3337C7.02336 13.3337 7.58301 12.7741 7.58301 12.0837C7.58301 11.3934 7.02336 10.8337 6.33301 10.8337C5.64265 10.8337 5.08301 11.3934 5.08301 12.0837C5.08301 12.7741 5.64265 13.3337 6.33301 13.3337Z" fill="white"/>
<path d="M13.833 13.3337C14.5234 13.3337 15.083 12.7741 15.083 12.0837C15.083 11.3934 14.5234 10.8337 13.833 10.8337C13.1427 10.8337 12.583 11.3934 12.583 12.0837C12.583 12.7741 13.1427 13.3337 13.833 13.3337Z" fill="white"/>
</g>
</svg>
