<svg width="19" height="18" viewBox="0 0 19 18" fill="none" xmlns="http://www.w3.org/2000/svg">
<g opacity="0.5">
<path d="M3.83301 3.75H5.33301V6H12.833V3.75H14.333V7.5H15.833V3.75C15.833 2.925 15.158 2.25 14.333 2.25H11.198C10.883 1.38 10.058 0.75 9.08301 0.75C8.10801 0.75 7.28301 1.38 6.96801 2.25H3.83301C3.00801 2.25 2.33301 2.925 2.33301 3.75V14.25C2.33301 15.075 3.00801 15.75 3.83301 15.75H8.33301V14.25H3.83301V3.75ZM9.08301 2.25C9.49551 2.25 9.83301 2.5875 9.83301 3C9.83301 3.4125 9.49551 3.75 9.08301 3.75C8.67051 3.75 8.33301 3.4125 8.33301 3C8.33301 2.5875 8.67051 2.25 9.08301 2.25Z" fill="white"/>
<path d="M15.833 8.625L11.7155 12.75L9.45801 10.5L8.33301 11.625L11.7155 15L16.958 9.75L15.833 8.625Z" fill="white"/>
</g>
</svg>
