<svg width="16" height="16" viewBox="0 0 16 16" fill="none" xmlns="http://www.w3.org/2000/svg">
<path d="M13.9163 0.5H2.24967C1.33301 0.5 0.583008 1.25 0.583008 2.16667V13.8333C0.583008 14.75 1.33301 15.5 2.24967 15.5H13.9163C14.833 15.5 15.583 14.75 15.583 13.8333V2.16667C15.583 1.25 14.833 0.5 13.9163 0.5ZM13.9163 13.8333H2.24967V2.16667H13.9163V13.8333Z" fill="white"/>
<path d="M7.45801 4.43335H3.29134V5.68335H7.45801V4.43335Z" fill="white"/>
<path d="M13.083 11.125H8.91634V12.375H13.083V11.125Z" fill="white"/>
<path d="M13.083 9.04163H8.91634V10.2916H13.083V9.04163Z" fill="white"/>
<path d="M4.74967 13H5.99967V11.3333H7.66634V10.0833H5.99967V8.41663H4.74967V10.0833H3.08301V11.3333H4.74967V13Z" fill="white"/>
<path d="M9.82467 7.125L10.9997 5.95L12.1747 7.125L13.058 6.24167L11.883 5.05833L13.058 3.88333L12.1747 3L10.9997 4.175L9.82467 3L8.94134 3.88333L10.1163 5.05833L8.94134 6.24167L9.82467 7.125Z" fill="white"/>
</svg>
