<svg width="23" height="23" viewBox="0 0 23 23" fill="none" xmlns="http://www.w3.org/2000/svg">
<path d="M11.0163 8.31668C9.39559 8.31668 8.08292 9.62935 8.08292 11.25C8.08292 12.8707 9.39559 14.1834 11.0163 14.1834C12.6369 14.1834 13.9496 12.8707 13.9496 11.25C13.9496 9.62935 12.6369 8.31668 11.0163 8.31668ZM17.5723 10.5167C17.2349 7.45868 14.8076 5.03135 11.7496 4.69402V3.18335H10.2829V4.69402C7.22492 5.03135 4.79759 7.45868 4.46025 10.5167H2.94958V11.9834H4.46025C4.79759 15.0414 7.22492 17.4687 10.2829 17.806V19.3167H11.7496V17.806C14.8076 17.4687 17.2349 15.0414 17.5723 11.9834H19.0829V10.5167H17.5723ZM11.0163 16.3834C8.17825 16.3834 5.88292 14.088 5.88292 11.25C5.88292 8.41202 8.17825 6.11668 11.0163 6.11668C13.8543 6.11668 16.1496 8.41202 16.1496 11.25C16.1496 14.088 13.8543 16.3834 11.0163 16.3834Z" fill="#DA291C"/>
</svg>
