<svg width="12" height="13" viewBox="0 0 12 13" fill="none" xmlns="http://www.w3.org/2000/svg">
<path d="M2.41333 5.5488C3.37333 7.43547 4.92 8.97547 6.80667 9.94213L8.27333 8.47547C8.45333 8.29547 8.72 8.23547 8.95333 8.31547C9.7 8.56214 10.5067 8.69547 11.3333 8.69547C11.7 8.69547 12 8.99547 12 9.36214V11.6888C12 12.0555 11.7 12.3555 11.3333 12.3555C5.07333 12.3555 0 7.28214 0 1.02214C0 0.655469 0.3 0.355469 0.666667 0.355469H3C3.36667 0.355469 3.66667 0.655469 3.66667 1.02214C3.66667 1.85547 3.8 2.65547 4.04667 3.40214C4.12 3.63547 4.06667 3.89547 3.88 4.08214L2.41333 5.5488Z" fill="black"/>
</svg>
