<svg width="21" height="20" viewBox="0 0 21 20" fill="none" xmlns="http://www.w3.org/2000/svg">
<g opacity="0.5">
<path d="M10.0835 9.99862C9.16687 9.99862 8.41687 9.24862 8.41687 8.33195C8.41687 7.41528 9.16687 6.66528 10.0835 6.66528C11.0002 6.66528 11.7502 7.41528 11.7502 8.33195C11.7502 9.24862 11.0002 9.99862 10.0835 9.99862ZM15.0835 8.49862C15.0835 5.47362 12.8752 3.33195 10.0835 3.33195C7.29187 3.33195 5.08354 5.47362 5.08354 8.49862C5.08354 10.4486 6.70854 13.032 10.0835 16.1153C13.4585 13.032 15.0835 10.4486 15.0835 8.49862ZM10.0835 1.66528C13.5835 1.66528 16.7502 4.34862 16.7502 8.49862C16.7502 11.2653 14.5252 14.5403 10.0835 18.332C5.64187 14.5403 3.41687 11.2653 3.41687 8.49862C3.41687 4.34862 6.58354 1.66528 10.0835 1.66528Z" fill="white"/>
</g>
</svg>
